<mxfile host="app.diagrams.net" agent="Mozilla/5.0 (Macintosh; Intel Mac OS X 10_15_7) AppleWebKit/537.36 (KHTML, like Gecko) Chrome/129.0.0.0 Safari/537.36" version="24.7.17">
  <diagram name="第 1 页" id="GIshXW5_Brh-tKpvZRBz">
    <mxGraphModel dx="2074" dy="1121" grid="1" gridSize="10" guides="1" tooltips="1" connect="1" arrows="1" fold="1" page="1" pageScale="1" pageWidth="3300" pageHeight="4681" math="0" shadow="0">
      <root>
        <mxCell id="0" />
        <mxCell id="1" parent="0" />
        <mxCell id="ijtOOCtE1cVueJehVMij-1" style="edgeStyle=orthogonalEdgeStyle;rounded=1;orthogonalLoop=1;jettySize=auto;html=1;entryX=0;entryY=0.5;entryDx=0;entryDy=0;labelBackgroundColor=none;strokeColor=#A8201A;fontColor=default;" edge="1" parent="1" source="ijtOOCtE1cVueJehVMij-2" target="ijtOOCtE1cVueJehVMij-3">
          <mxGeometry relative="1" as="geometry" />
        </mxCell>
        <mxCell id="ijtOOCtE1cVueJehVMij-2" value="Actor" style="shape=umlActor;verticalLabelPosition=bottom;verticalAlign=top;html=1;outlineConnect=0;rounded=1;labelBackgroundColor=none;fillColor=#FAE5C7;strokeColor=#0F8B8D;fontColor=#143642;" vertex="1" parent="1">
          <mxGeometry x="220" y="370" width="30" height="60" as="geometry" />
        </mxCell>
        <mxCell id="ijtOOCtE1cVueJehVMij-3" value="&lt;span style=&quot;color: rgb(33, 33, 33); font-family: Inter, system-ui, -apple-system, &amp;quot;system-ui&amp;quot;, &amp;quot;Segoe UI&amp;quot;, Roboto, Oxygen, Ubuntu, Cantarell, &amp;quot;Fira Sans&amp;quot;, &amp;quot;Droid Sans&amp;quot;, Helvetica, Arial, sans-serif; text-align: left; white-space-collapse: preserve; background-color: rgb(255, 255, 255);&quot;&gt;lookup.api.bsb.baidu.com&lt;/span&gt;" style="rounded=1;whiteSpace=wrap;html=1;labelBackgroundColor=none;fillColor=#FAE5C7;strokeColor=#0F8B8D;fontColor=#143642;" vertex="1" parent="1">
          <mxGeometry x="320" y="370" width="170" height="60" as="geometry" />
        </mxCell>
        <mxCell id="ijtOOCtE1cVueJehVMij-4" value="华北&amp;nbsp;" style="swimlane;whiteSpace=wrap;html=1;align=left;rounded=1;labelBackgroundColor=none;fillColor=#FAE5C7;strokeColor=#0F8B8D;fontColor=#143642;" vertex="1" parent="1">
          <mxGeometry x="910" y="82.5" width="200" height="195" as="geometry">
            <mxRectangle x="640" y="90" width="130" height="30" as="alternateBounds" />
          </mxGeometry>
        </mxCell>
        <mxCell id="ijtOOCtE1cVueJehVMij-5" value="go_server&lt;div&gt;(包含鉴权、配额限制等功能)&lt;/div&gt;" style="rounded=1;whiteSpace=wrap;html=1;labelBackgroundColor=none;fillColor=#FAE5C7;strokeColor=#0F8B8D;fontColor=#143642;" vertex="1" parent="ijtOOCtE1cVueJehVMij-4">
          <mxGeometry x="20" y="40" width="170" height="90" as="geometry" />
        </mxCell>
        <mxCell id="ijtOOCtE1cVueJehVMij-7" value="&lt;font style=&quot;font-size: 29px;&quot;&gt;......&lt;/font&gt;" style="text;html=1;align=center;verticalAlign=middle;resizable=0;points=[];autosize=1;strokeColor=none;fillColor=none;fontColor=#143642;" vertex="1" parent="ijtOOCtE1cVueJehVMij-4">
          <mxGeometry x="60" y="135" width="70" height="50" as="geometry" />
        </mxCell>
        <mxCell id="ijtOOCtE1cVueJehVMij-8" value="华中" style="swimlane;whiteSpace=wrap;html=1;align=left;rounded=1;labelBackgroundColor=none;fillColor=#FAE5C7;strokeColor=#0F8B8D;fontColor=#143642;" vertex="1" parent="1">
          <mxGeometry x="910" y="302.5" width="200" height="195" as="geometry">
            <mxRectangle x="640" y="90" width="130" height="30" as="alternateBounds" />
          </mxGeometry>
        </mxCell>
        <mxCell id="ijtOOCtE1cVueJehVMij-11" value="&lt;font style=&quot;font-size: 29px;&quot;&gt;......&lt;/font&gt;" style="text;html=1;align=center;verticalAlign=middle;resizable=0;points=[];autosize=1;strokeColor=none;fillColor=none;fontColor=#143642;" vertex="1" parent="ijtOOCtE1cVueJehVMij-8">
          <mxGeometry x="60" y="135" width="70" height="50" as="geometry" />
        </mxCell>
        <mxCell id="ijtOOCtE1cVueJehVMij-22" value="go_server&lt;div&gt;(包含鉴权、配额限制等功能)&lt;/div&gt;" style="rounded=1;whiteSpace=wrap;html=1;labelBackgroundColor=none;fillColor=#FAE5C7;strokeColor=#0F8B8D;fontColor=#143642;" vertex="1" parent="ijtOOCtE1cVueJehVMij-8">
          <mxGeometry x="15" y="45" width="170" height="90" as="geometry" />
        </mxCell>
        <mxCell id="ijtOOCtE1cVueJehVMij-12" value="华南" style="swimlane;whiteSpace=wrap;html=1;align=left;rounded=1;labelBackgroundColor=none;fillColor=#FAE5C7;strokeColor=#0F8B8D;fontColor=#143642;" vertex="1" parent="1">
          <mxGeometry x="910" y="527.5" width="200" height="195" as="geometry">
            <mxRectangle x="640" y="90" width="130" height="30" as="alternateBounds" />
          </mxGeometry>
        </mxCell>
        <mxCell id="ijtOOCtE1cVueJehVMij-15" value="&lt;font style=&quot;font-size: 29px;&quot;&gt;......&lt;/font&gt;" style="text;html=1;align=center;verticalAlign=middle;resizable=0;points=[];autosize=1;strokeColor=none;fillColor=none;fontColor=#143642;" vertex="1" parent="ijtOOCtE1cVueJehVMij-12">
          <mxGeometry x="60" y="135" width="70" height="50" as="geometry" />
        </mxCell>
        <mxCell id="ijtOOCtE1cVueJehVMij-23" value="go_server&lt;div&gt;(包含鉴权、配额限制等功能)&lt;/div&gt;" style="rounded=1;whiteSpace=wrap;html=1;labelBackgroundColor=none;fillColor=#FAE5C7;strokeColor=#0F8B8D;fontColor=#143642;" vertex="1" parent="ijtOOCtE1cVueJehVMij-12">
          <mxGeometry x="20" y="45" width="170" height="90" as="geometry" />
        </mxCell>
        <mxCell id="ijtOOCtE1cVueJehVMij-16" value="BNS group" style="rounded=1;whiteSpace=wrap;html=1;" vertex="1" parent="1">
          <mxGeometry x="560" y="370" width="120" height="60" as="geometry" />
        </mxCell>
        <mxCell id="ijtOOCtE1cVueJehVMij-17" value="" style="endArrow=classic;html=1;rounded=0;exitX=1;exitY=0.5;exitDx=0;exitDy=0;entryX=0;entryY=0.5;entryDx=0;entryDy=0;" edge="1" parent="1" source="ijtOOCtE1cVueJehVMij-3" target="ijtOOCtE1cVueJehVMij-16">
          <mxGeometry width="50" height="50" relative="1" as="geometry">
            <mxPoint x="620" y="600" as="sourcePoint" />
            <mxPoint x="670" y="550" as="targetPoint" />
          </mxGeometry>
        </mxCell>
        <mxCell id="ijtOOCtE1cVueJehVMij-19" value="" style="endArrow=classic;html=1;rounded=0;exitX=1;exitY=0.5;exitDx=0;exitDy=0;entryX=0;entryY=0.5;entryDx=0;entryDy=0;" edge="1" parent="1" source="ijtOOCtE1cVueJehVMij-16" target="ijtOOCtE1cVueJehVMij-4">
          <mxGeometry width="50" height="50" relative="1" as="geometry">
            <mxPoint x="340" y="550" as="sourcePoint" />
            <mxPoint x="390" y="500" as="targetPoint" />
          </mxGeometry>
        </mxCell>
        <mxCell id="ijtOOCtE1cVueJehVMij-20" value="" style="endArrow=classic;html=1;rounded=0;exitX=1;exitY=0.5;exitDx=0;exitDy=0;entryX=0;entryY=0.5;entryDx=0;entryDy=0;" edge="1" parent="1" source="ijtOOCtE1cVueJehVMij-16" target="ijtOOCtE1cVueJehVMij-8">
          <mxGeometry width="50" height="50" relative="1" as="geometry">
            <mxPoint x="690" y="410" as="sourcePoint" />
            <mxPoint x="920" y="190" as="targetPoint" />
          </mxGeometry>
        </mxCell>
        <mxCell id="ijtOOCtE1cVueJehVMij-21" value="" style="endArrow=classic;html=1;rounded=0;entryX=0;entryY=0.5;entryDx=0;entryDy=0;" edge="1" parent="1" target="ijtOOCtE1cVueJehVMij-12">
          <mxGeometry width="50" height="50" relative="1" as="geometry">
            <mxPoint x="680" y="400" as="sourcePoint" />
            <mxPoint x="930" y="200" as="targetPoint" />
          </mxGeometry>
        </mxCell>
      </root>
    </mxGraphModel>
  </diagram>
</mxfile>
